<svg width="165" height="45" viewBox="0 0 165 45" fill="none" xmlns="http://www.w3.org/2000/svg">
<path fill-rule="evenodd" clip-rule="evenodd" d="M10.523 0.575684H160.372C163.279 0.575684 165.295 2.72346 164.965 5.43296L160.273 39.9626C159.942 42.6721 157.299 44.8859 154.391 44.8859H4.57535C1.73368 44.8859 -0.348012 42.6721 0.0485 39.9626L4.64143 5.43296C5.07099 2.72346 7.68136 0.575684 10.523 0.575684Z" fill="#861819"/>
<path d="M131.096 32.8252L133.574 11.9092H139.786L146.527 23.6393L147.881 11.9092H154.159L151.714 33.1556H145.37L138.695 21.4916L137.308 33.1556H131.03L131.096 32.8252Z" fill="white"/>
<path d="M123.331 33.1555H130.105L132.715 11.7769H125.941L123.331 33.1555Z" fill="white"/>
<path d="M119.696 25.9854C119.233 25.1923 118.54 24.5645 117.813 24.1019L116.987 23.7054C119.2 23.3089 121.249 22.0202 122.24 20.0046C122.637 19.1125 122.901 17.989 122.835 16.5682C122.835 15.8413 122.637 15.1474 122.505 14.8169C121.712 12.9996 119.465 12.1074 117.185 11.9753L104.1 11.9092L101.589 33.2217L108.197 33.1556L109.288 24.5315C109.288 24.5315 109.354 24.5315 109.816 24.5315C110.907 24.5315 110.973 24.6637 111.634 25.1923C112.294 25.721 115.202 33.1556 115.202 33.1556H122.769L119.96 26.6132C119.894 26.3488 119.762 26.1175 119.696 25.9854ZM115.995 18.9142C115.797 19.3107 115.334 19.8725 114.244 20.2029C113.98 20.3351 113.649 20.4012 113.286 20.4012L109.783 20.4672L110.312 16.1386H114.079C115.103 16.2047 115.83 16.7334 116.094 17.4934C116.326 18.0551 116.193 18.5838 115.995 18.9142Z" fill="white"/>
<path d="M95.74 11.9751H88.5367L77.897 33.2215H84.7038L86.1246 29.719H93.6914L94.2861 33.2215C94.2861 33.2215 101.159 33.2215 101.357 33.2215L95.74 11.9751ZM88.1402 25.06L91.3784 17.4932L92.7992 25.06H88.1402Z" fill="white"/>
<path d="M53.4124 33.1558L55.8245 11.8433H64.6799L66.5633 24.6638L71.4206 11.8433H80.1108L77.7648 33.2219L72.1476 33.1558L74.0971 17.031L68.0503 33.1558H63.0608L60.7478 17.031L58.9305 33.1558H53.4124Z" fill="white"/>
<path d="M65.275 39.566L61.9707 34.6427L28.3332 34.8409L29.9523 32.4288H49.051L45.8128 27.6376L33.1905 27.7698L42.2112 14.2884L45.5815 19.3439L51.2979 19.2117L42.112 5.99464L36.3956 14.0901L30.448 5.79639L12.5388 32.1314L12.4397 32.2636L24.0046 32.3958L19.2795 39.566H65.275ZM21.5925 27.6046L30.6132 14.1231L33.4548 18.3857L27.375 27.7367L21.5925 27.6046Z" fill="white"/>
</svg>
